<mxfile host="app.diagrams.net" agent="Mozilla/5.0 (Windows NT 10.0; Win64; x64) AppleWebKit/537.36 (KHTML, like Gecko) Chrome/129.0.0.0 Safari/537.36" version="24.8.0">
  <diagram name="PÃ¡gina-1" id="xucKO0_YMe7kBY9NIf0U">
    <mxGraphModel grid="1" page="1" gridSize="10" guides="1" tooltips="1" connect="1" arrows="1" fold="1" pageScale="1" pageWidth="827" pageHeight="1169" math="0" shadow="0">
      <root>
        <mxCell id="0" />
        <mxCell id="1" parent="0" />
        <mxCell id="qrZ8J_EWP8P2Gk__u129-1" value="" style="rounded=0;whiteSpace=wrap;html=1;fillColor=#dae8fc;strokeColor=#6c8ebf;" vertex="1" parent="1">
          <mxGeometry x="760" y="14" width="190" height="196" as="geometry" />
        </mxCell>
        <mxCell id="qrZ8J_EWP8P2Gk__u129-2" value="" style="rounded=0;whiteSpace=wrap;html=1;fillColor=#d5e8d4;strokeColor=#82b366;" vertex="1" parent="1">
          <mxGeometry x="450" y="63" width="130" height="47" as="geometry" />
        </mxCell>
        <mxCell id="qrZ8J_EWP8P2Gk__u129-3" value="" style="rounded=0;whiteSpace=wrap;html=1;fillColor=#e1d5e7;strokeColor=#9673a6;" vertex="1" parent="1">
          <mxGeometry x="240" y="504" width="150" height="76" as="geometry" />
        </mxCell>
        <mxCell id="qrZ8J_EWP8P2Gk__u129-4" value="&lt;span style=&quot;font-weight: 400;&quot;&gt;Manager&lt;/span&gt;" style="swimlane;whiteSpace=wrap;html=1;fillColor=#e1d5e7;strokeColor=#9673a6;" vertex="1" parent="1">
          <mxGeometry x="100" y="20" width="180" height="180" as="geometry">
            <mxRectangle x="60" y="210" width="90" height="30" as="alternateBounds" />
          </mxGeometry>
        </mxCell>
        <mxCell id="qrZ8J_EWP8P2Gk__u129-5" value="" style="rounded=0;whiteSpace=wrap;html=1;fillColor=#e1d5e7;strokeColor=#9673a6;" vertex="1" parent="qrZ8J_EWP8P2Gk__u129-4">
          <mxGeometry y="24" width="180" height="156" as="geometry" />
        </mxCell>
        <mxCell id="qrZ8J_EWP8P2Gk__u129-6" value="&lt;span style=&quot;text-align: left;&quot;&gt;+Name: string&lt;/span&gt;" style="text;html=1;align=center;verticalAlign=middle;whiteSpace=wrap;rounded=0;" vertex="1" parent="qrZ8J_EWP8P2Gk__u129-4">
          <mxGeometry y="20" width="90" height="30" as="geometry" />
        </mxCell>
        <mxCell id="qrZ8J_EWP8P2Gk__u129-7" value="&lt;span style=&quot;text-align: left;&quot;&gt;+Id: int&lt;/span&gt;" style="text;html=1;align=center;verticalAlign=middle;whiteSpace=wrap;rounded=0;" vertex="1" parent="qrZ8J_EWP8P2Gk__u129-4">
          <mxGeometry x="6" y="39" width="40" height="30" as="geometry" />
        </mxCell>
        <mxCell id="qrZ8J_EWP8P2Gk__u129-8" value="&lt;span style=&quot;text-align: left;&quot;&gt;+PhoneNo: int&lt;/span&gt;" style="text;html=1;align=center;verticalAlign=middle;whiteSpace=wrap;rounded=0;" vertex="1" parent="qrZ8J_EWP8P2Gk__u129-4">
          <mxGeometry x="4" y="58" width="84" height="30" as="geometry" />
        </mxCell>
        <mxCell id="qrZ8J_EWP8P2Gk__u129-9" value="&lt;span style=&quot;text-align: left;&quot;&gt;+Location: string&amp;nbsp;&lt;/span&gt;" style="text;html=1;align=center;verticalAlign=middle;whiteSpace=wrap;rounded=0;" vertex="1" parent="qrZ8J_EWP8P2Gk__u129-4">
          <mxGeometry x="-3" y="76" width="114" height="30" as="geometry" />
        </mxCell>
        <mxCell id="qrZ8J_EWP8P2Gk__u129-10" value="&lt;div style=&quot;text-align: left;&quot;&gt;&lt;span style=&quot;background-color: initial;&quot;&gt;+PurchaseInventory()&lt;/span&gt;&lt;/div&gt;" style="text;html=1;align=center;verticalAlign=middle;whiteSpace=wrap;rounded=0;" vertex="1" parent="qrZ8J_EWP8P2Gk__u129-4">
          <mxGeometry x="7" y="118" width="116" height="15" as="geometry" />
        </mxCell>
        <mxCell id="qrZ8J_EWP8P2Gk__u129-11" value="&lt;div style=&quot;text-align: left;&quot;&gt;&lt;span style=&quot;background-color: initial;&quot;&gt;+RecordComplaints&lt;/span&gt;&lt;span style=&quot;color: rgba(0, 0, 0, 0); font-family: monospace; font-size: 0px; text-wrap: nowrap; background-color: initial;&quot;&gt;%3CmxGraphModel%3E%3Croot%3E%3CmxCell%20id%3D%220%22%2F%3E%3CmxCell%20id%3D%221%22%20parent%3D%220%22%2F%3E%3CmxCell%20id%3D%222%22%20value%3D%22%26lt%3Bdiv%20style%3D%26quot%3Btext-align%3A%20left%3B%26quot%3B%26gt%3B%26lt%3Bspan%20style%3D%26quot%3Bbackground-color%3A%20initial%3B%26quot%3B%26gt%3B%2BPurcgaseInventory()%26lt%3B%2Fspan%26gt%3B%26lt%3B%2Fdiv%26gt%3B%22%20style%3D%22text%3Bhtml%3D1%3Balign%3Dcenter%3BverticalAlign%3Dmiddle%3BwhiteSpace%3Dwrap%3Brounded%3D0%3B%22%20vertex%3D%221%22%20parent%3D%221%22%3E%3CmxGeometry%20x%3D%2247%22%20y%3D%22312%22%20width%3D%22116%22%20height%3D%2215%22%20as%3D%22geometry%22%2F%3E%3C%2FmxCell%3E%3C%2Froot%3E%3C%2FmxGraphModel%3E&lt;/span&gt;&lt;span style=&quot;background-color: initial;&quot;&gt;()&lt;/span&gt;&lt;/div&gt;" style="text;html=1;align=center;verticalAlign=middle;whiteSpace=wrap;rounded=0;" vertex="1" parent="qrZ8J_EWP8P2Gk__u129-4">
          <mxGeometry x="7" y="137" width="116" height="15" as="geometry" />
        </mxCell>
        <mxCell id="qrZ8J_EWP8P2Gk__u129-12" value="&lt;div style=&quot;text-align: left;&quot;&gt;&lt;span style=&quot;background-color: initial;&quot;&gt;+Manage Staff&lt;/span&gt;&lt;span style=&quot;color: rgba(0, 0, 0, 0); font-family: monospace; font-size: 0px; text-wrap: nowrap; background-color: initial;&quot;&gt;%3CmxGraphModel%3E%3Croot%3E%3CmxCell%20id%3D%220%22%2F%3E%3CmxCell%20id%3D%221%22%20parent%3D%220%22%2F%3E%3CmxCell%20id%3D%222%22%20value%3D%22%26lt%3Bdiv%20style%3D%26quot%3Btext-align%3A%20left%3B%26quot%3B%26gt%3B%26lt%3Bspan%20style%3D%26quot%3Bbackground-color%3A%20initial%3B%26quot%3B%26gt%3B%2BPurcgaseInventory()%26lt%3B%2Fspan%26gt%3B%26lt%3B%2Fdiv%26gt%3B%22%20style%3D%22text%3Bhtml%3D1%3Balign%3Dcenter%3BverticalAlign%3Dmiddle%3BwhiteSpace%3Dwrap%3Brounded%3D0%3B%22%20vertex%3D%221%22%20parent%3D%221%22%3E%3CmxGeometry%20x%3D%2247%22%20y%3D%22312%22%20width%3D%22116%22%20height%3D%2215%22%20as%3D%22geometry%22%2F%3E%3C%2FmxCell%3E%3C%2Froot%3E%3C%2FmxGraphModel%E&lt;/span&gt;&lt;span style=&quot;background-color: initial;&quot;&gt;()&lt;/span&gt;&lt;/div&gt;" style="text;html=1;align=center;verticalAlign=middle;whiteSpace=wrap;rounded=0;" vertex="1" parent="qrZ8J_EWP8P2Gk__u129-4">
          <mxGeometry x="-7" y="156" width="116" height="15" as="geometry" />
        </mxCell>
        <mxCell id="qrZ8J_EWP8P2Gk__u129-13" value="" style="endArrow=none;html=1;rounded=0;" edge="1" parent="qrZ8J_EWP8P2Gk__u129-4">
          <mxGeometry width="50" height="50" relative="1" as="geometry">
            <mxPoint y="110" as="sourcePoint" />
            <mxPoint x="180" y="110" as="targetPoint" />
          </mxGeometry>
        </mxCell>
        <mxCell id="qrZ8J_EWP8P2Gk__u129-14" value="&lt;span style=&quot;font-weight: 400;&quot;&gt;Inventory&lt;/span&gt;" style="swimlane;whiteSpace=wrap;html=1;fillColor=#d5e8d4;strokeColor=#82b366;" vertex="1" parent="1">
          <mxGeometry x="450" y="40" width="130" height="70" as="geometry">
            <mxRectangle x="60" y="210" width="90" height="30" as="alternateBounds" />
          </mxGeometry>
        </mxCell>
        <mxCell id="qrZ8J_EWP8P2Gk__u129-15" value="&lt;span style=&quot;text-align: left;&quot;&gt;+Type:string&lt;/span&gt;" style="text;html=1;align=center;verticalAlign=middle;whiteSpace=wrap;rounded=0;" vertex="1" parent="qrZ8J_EWP8P2Gk__u129-14">
          <mxGeometry y="20" width="90" height="30" as="geometry" />
        </mxCell>
        <mxCell id="qrZ8J_EWP8P2Gk__u129-16" value="&lt;span style=&quot;text-align: left;&quot;&gt;+Status: string&lt;/span&gt;" style="text;html=1;align=center;verticalAlign=middle;whiteSpace=wrap;rounded=0;" vertex="1" parent="qrZ8J_EWP8P2Gk__u129-14">
          <mxGeometry x="2" y="41" width="97" height="21" as="geometry" />
        </mxCell>
        <mxCell id="qrZ8J_EWP8P2Gk__u129-17" value="&lt;span style=&quot;font-weight: 400;&quot;&gt;Guest&lt;/span&gt;" style="swimlane;whiteSpace=wrap;html=1;fillColor=#d5e8d4;strokeColor=#82b366;" vertex="1" parent="1">
          <mxGeometry x="413" y="190" width="190" height="220" as="geometry">
            <mxRectangle x="60" y="210" width="90" height="30" as="alternateBounds" />
          </mxGeometry>
        </mxCell>
        <mxCell id="qrZ8J_EWP8P2Gk__u129-18" value="" style="rounded=0;whiteSpace=wrap;html=1;fillColor=#d5e8d4;strokeColor=#82b366;" vertex="1" parent="qrZ8J_EWP8P2Gk__u129-17">
          <mxGeometry y="24" width="190" height="196" as="geometry" />
        </mxCell>
        <mxCell id="qrZ8J_EWP8P2Gk__u129-19" value="&lt;span style=&quot;text-align: left;&quot;&gt;+Name: string&lt;/span&gt;" style="text;html=1;align=center;verticalAlign=middle;whiteSpace=wrap;rounded=0;" vertex="1" parent="qrZ8J_EWP8P2Gk__u129-17">
          <mxGeometry y="20" width="90" height="30" as="geometry" />
        </mxCell>
        <mxCell id="qrZ8J_EWP8P2Gk__u129-20" value="&lt;span style=&quot;text-align: left;&quot;&gt;+Id: int&lt;/span&gt;" style="text;html=1;align=center;verticalAlign=middle;whiteSpace=wrap;rounded=0;" vertex="1" parent="qrZ8J_EWP8P2Gk__u129-17">
          <mxGeometry x="6" y="39" width="40" height="30" as="geometry" />
        </mxCell>
        <mxCell id="qrZ8J_EWP8P2Gk__u129-21" value="&lt;span style=&quot;text-align: left;&quot;&gt;+PhoneNo: int&lt;/span&gt;" style="text;html=1;align=center;verticalAlign=middle;whiteSpace=wrap;rounded=0;" vertex="1" parent="qrZ8J_EWP8P2Gk__u129-17">
          <mxGeometry x="4" y="58" width="84" height="30" as="geometry" />
        </mxCell>
        <mxCell id="qrZ8J_EWP8P2Gk__u129-22" value="&lt;span style=&quot;text-align: left;&quot;&gt;+Address: string&lt;/span&gt;" style="text;html=1;align=center;verticalAlign=middle;whiteSpace=wrap;rounded=0;" vertex="1" parent="qrZ8J_EWP8P2Gk__u129-17">
          <mxGeometry x="-6" y="76" width="114" height="30" as="geometry" />
        </mxCell>
        <mxCell id="qrZ8J_EWP8P2Gk__u129-23" value="&lt;div style=&quot;text-align: left;&quot;&gt;&lt;span style=&quot;background-color: initial;&quot;&gt;+Check-In()&lt;/span&gt;&lt;/div&gt;" style="text;html=1;align=center;verticalAlign=middle;whiteSpace=wrap;rounded=0;" vertex="1" parent="qrZ8J_EWP8P2Gk__u129-17">
          <mxGeometry x="-20" y="143" width="116" height="15" as="geometry" />
        </mxCell>
        <mxCell id="qrZ8J_EWP8P2Gk__u129-24" value="&lt;div style=&quot;text-align: left;&quot;&gt;+Check-Out()&lt;/div&gt;" style="text;html=1;align=center;verticalAlign=middle;whiteSpace=wrap;rounded=0;" vertex="1" parent="qrZ8J_EWP8P2Gk__u129-17">
          <mxGeometry x="-15" y="158" width="116" height="15" as="geometry" />
        </mxCell>
        <mxCell id="qrZ8J_EWP8P2Gk__u129-25" value="&lt;span style=&quot;text-align: left;&quot;&gt;+RoomNo: int&lt;/span&gt;" style="text;html=1;align=center;verticalAlign=middle;whiteSpace=wrap;rounded=0;" vertex="1" parent="qrZ8J_EWP8P2Gk__u129-17">
          <mxGeometry x="5" y="94" width="80" height="30" as="geometry" />
        </mxCell>
        <mxCell id="qrZ8J_EWP8P2Gk__u129-26" value="&lt;div style=&quot;text-align: left;&quot;&gt;+OrderFood()&lt;/div&gt;" style="text;html=1;align=center;verticalAlign=middle;whiteSpace=wrap;rounded=0;" vertex="1" parent="qrZ8J_EWP8P2Gk__u129-17">
          <mxGeometry x="-14" y="187" width="116" height="15" as="geometry" />
        </mxCell>
        <mxCell id="qrZ8J_EWP8P2Gk__u129-27" value="&lt;div style=&quot;text-align: left;&quot;&gt;+SubmitFeedback()&lt;/div&gt;" style="text;html=1;align=center;verticalAlign=middle;whiteSpace=wrap;rounded=0;" vertex="1" parent="qrZ8J_EWP8P2Gk__u129-17">
          <mxGeometry x="2" y="200" width="116" height="15" as="geometry" />
        </mxCell>
        <mxCell id="qrZ8J_EWP8P2Gk__u129-28" value="" style="endArrow=none;html=1;rounded=0;" edge="1" parent="qrZ8J_EWP8P2Gk__u129-17">
          <mxGeometry width="50" height="50" relative="1" as="geometry">
            <mxPoint y="130" as="sourcePoint" />
            <mxPoint x="190" y="130" as="targetPoint" />
          </mxGeometry>
        </mxCell>
        <mxCell id="qrZ8J_EWP8P2Gk__u129-29" value="&lt;span style=&quot;text-align: left;&quot;&gt;+Name: string&lt;/span&gt;" style="text;html=1;align=center;verticalAlign=middle;whiteSpace=wrap;rounded=0;" vertex="1" parent="1">
          <mxGeometry x="760" y="10" width="90" height="30" as="geometry" />
        </mxCell>
        <mxCell id="qrZ8J_EWP8P2Gk__u129-30" value="&lt;span style=&quot;text-align: left;&quot;&gt;+Id: int&lt;/span&gt;" style="text;html=1;align=center;verticalAlign=middle;whiteSpace=wrap;rounded=0;" vertex="1" parent="1">
          <mxGeometry x="766" y="29" width="40" height="30" as="geometry" />
        </mxCell>
        <mxCell id="qrZ8J_EWP8P2Gk__u129-31" value="&lt;span style=&quot;text-align: left;&quot;&gt;+PhoneNo: int&lt;/span&gt;" style="text;html=1;align=center;verticalAlign=middle;whiteSpace=wrap;rounded=0;" vertex="1" parent="1">
          <mxGeometry x="764" y="48" width="84" height="30" as="geometry" />
        </mxCell>
        <mxCell id="qrZ8J_EWP8P2Gk__u129-32" value="&lt;span style=&quot;text-align: left;&quot;&gt;+Location: string&lt;/span&gt;" style="text;html=1;align=center;verticalAlign=middle;whiteSpace=wrap;rounded=0;" vertex="1" parent="1">
          <mxGeometry x="755" y="66" width="114" height="30" as="geometry" />
        </mxCell>
        <mxCell id="qrZ8J_EWP8P2Gk__u129-33" value="&lt;div style=&quot;text-align: left;&quot;&gt;&lt;span style=&quot;background-color: initial;&quot;&gt;+CheckRoomAvailability()&lt;/span&gt;&lt;/div&gt;" style="text;html=1;align=center;verticalAlign=middle;whiteSpace=wrap;rounded=0;" vertex="1" parent="1">
          <mxGeometry x="778" y="118" width="116" height="15" as="geometry" />
        </mxCell>
        <mxCell id="qrZ8J_EWP8P2Gk__u129-34" value="&lt;div style=&quot;text-align: left;&quot;&gt;+BookRoom()&lt;/div&gt;" style="text;html=1;align=center;verticalAlign=middle;whiteSpace=wrap;rounded=0;" vertex="1" parent="1">
          <mxGeometry x="746" y="136" width="116" height="15" as="geometry" />
        </mxCell>
        <mxCell id="qrZ8J_EWP8P2Gk__u129-35" value="&lt;div style=&quot;text-align: left;&quot;&gt;+GenerateBill()&lt;/div&gt;" style="text;html=1;align=center;verticalAlign=middle;whiteSpace=wrap;rounded=0;" vertex="1" parent="1">
          <mxGeometry x="749" y="155" width="116" height="15" as="geometry" />
        </mxCell>
        <mxCell id="qrZ8J_EWP8P2Gk__u129-36" value="&lt;div style=&quot;text-align: left;&quot;&gt;+AcceptCustomerFeedBack()&lt;/div&gt;" style="text;html=1;align=center;verticalAlign=middle;whiteSpace=wrap;rounded=0;" vertex="1" parent="1">
          <mxGeometry x="787" y="173" width="116" height="15" as="geometry" />
        </mxCell>
        <mxCell id="qrZ8J_EWP8P2Gk__u129-37" value="&lt;div style=&quot;text-align: left;&quot;&gt;+PayBill()&lt;/div&gt;" style="text;html=1;align=center;verticalAlign=middle;whiteSpace=wrap;rounded=0;" vertex="1" parent="1">
          <mxGeometry x="388" y="362" width="116" height="15" as="geometry" />
        </mxCell>
        <mxCell id="qrZ8J_EWP8P2Gk__u129-38" value="&lt;span style=&quot;font-weight: 400;&quot;&gt;Rooms&lt;/span&gt;" style="swimlane;whiteSpace=wrap;html=1;fillColor=#dae8fc;strokeColor=#6c8ebf;" vertex="1" parent="1">
          <mxGeometry x="760" y="245" width="130" height="65" as="geometry">
            <mxRectangle x="60" y="210" width="90" height="30" as="alternateBounds" />
          </mxGeometry>
        </mxCell>
        <mxCell id="qrZ8J_EWP8P2Gk__u129-39" value="" style="rounded=0;whiteSpace=wrap;html=1;fillColor=#dae8fc;strokeColor=#6c8ebf;" vertex="1" parent="qrZ8J_EWP8P2Gk__u129-38">
          <mxGeometry y="24" width="130" height="46" as="geometry" />
        </mxCell>
        <mxCell id="qrZ8J_EWP8P2Gk__u129-40" value="&lt;span style=&quot;text-align: left;&quot;&gt;+RoomNo: int&lt;/span&gt;" style="text;html=1;align=center;verticalAlign=middle;whiteSpace=wrap;rounded=0;" vertex="1" parent="qrZ8J_EWP8P2Gk__u129-38">
          <mxGeometry x="-2" y="20" width="90" height="30" as="geometry" />
        </mxCell>
        <mxCell id="qrZ8J_EWP8P2Gk__u129-41" value="&lt;span style=&quot;text-align: left;&quot;&gt;+Location: string&lt;/span&gt;" style="text;html=1;align=center;verticalAlign=middle;whiteSpace=wrap;rounded=0;" vertex="1" parent="qrZ8J_EWP8P2Gk__u129-38">
          <mxGeometry x="2" y="39" width="97" height="30" as="geometry" />
        </mxCell>
        <mxCell id="qrZ8J_EWP8P2Gk__u129-42" value="&lt;span style=&quot;font-weight: 400;&quot;&gt;Bill&lt;/span&gt;" style="swimlane;whiteSpace=wrap;html=1;fillColor=#dae8fc;strokeColor=#6c8ebf;" vertex="1" parent="1">
          <mxGeometry x="820" y="450" width="130" height="70" as="geometry">
            <mxRectangle x="60" y="210" width="90" height="30" as="alternateBounds" />
          </mxGeometry>
        </mxCell>
        <mxCell id="qrZ8J_EWP8P2Gk__u129-43" value="" style="rounded=0;whiteSpace=wrap;html=1;fillColor=#dae8fc;strokeColor=#6c8ebf;" vertex="1" parent="qrZ8J_EWP8P2Gk__u129-42">
          <mxGeometry y="24" width="130" height="46" as="geometry" />
        </mxCell>
        <mxCell id="qrZ8J_EWP8P2Gk__u129-44" value="&lt;span style=&quot;text-align: left;&quot;&gt;+BillNo: int&lt;/span&gt;" style="text;html=1;align=center;verticalAlign=middle;whiteSpace=wrap;rounded=0;" vertex="1" parent="qrZ8J_EWP8P2Gk__u129-42">
          <mxGeometry x="-10" y="20" width="90" height="30" as="geometry" />
        </mxCell>
        <mxCell id="qrZ8J_EWP8P2Gk__u129-45" value="&lt;span style=&quot;text-align: left;&quot;&gt;+GuestName: string&lt;/span&gt;" style="text;html=1;align=center;verticalAlign=middle;whiteSpace=wrap;rounded=0;fillColor=#dae8fc;strokeColor=#6c8ebf;" vertex="1" parent="qrZ8J_EWP8P2Gk__u129-42">
          <mxGeometry x="2" y="39" width="114" height="30" as="geometry" />
        </mxCell>
        <mxCell id="qrZ8J_EWP8P2Gk__u129-46" value="+1" style="text;html=1;align=center;verticalAlign=middle;whiteSpace=wrap;rounded=0;" vertex="1" parent="qrZ8J_EWP8P2Gk__u129-42">
          <mxGeometry x="-50" y="20" width="60" height="30" as="geometry" />
        </mxCell>
        <mxCell id="qrZ8J_EWP8P2Gk__u129-47" value="&lt;span style=&quot;font-weight: 400;&quot;&gt;Housekeeping&lt;/span&gt;" style="swimlane;whiteSpace=wrap;html=1;fillColor=#d5e8d4;strokeColor=#82b366;" vertex="1" parent="1">
          <mxGeometry x="504" y="585" width="150" height="125" as="geometry">
            <mxRectangle x="60" y="210" width="90" height="30" as="alternateBounds" />
          </mxGeometry>
        </mxCell>
        <mxCell id="qrZ8J_EWP8P2Gk__u129-48" value="" style="rounded=0;whiteSpace=wrap;html=1;fillColor=#d5e8d4;strokeColor=#82b366;" vertex="1" parent="qrZ8J_EWP8P2Gk__u129-47">
          <mxGeometry y="24" width="150" height="96" as="geometry" />
        </mxCell>
        <mxCell id="qrZ8J_EWP8P2Gk__u129-49" value="&lt;span style=&quot;text-align: left;&quot;&gt;+Name: string&lt;/span&gt;" style="text;html=1;align=center;verticalAlign=middle;whiteSpace=wrap;rounded=0;" vertex="1" parent="qrZ8J_EWP8P2Gk__u129-47">
          <mxGeometry y="20" width="90" height="30" as="geometry" />
        </mxCell>
        <mxCell id="qrZ8J_EWP8P2Gk__u129-50" value="&lt;span style=&quot;text-align: left;&quot;&gt;+Id: int&lt;/span&gt;" style="text;html=1;align=center;verticalAlign=middle;whiteSpace=wrap;rounded=0;" vertex="1" parent="qrZ8J_EWP8P2Gk__u129-47">
          <mxGeometry x="6" y="39" width="40" height="30" as="geometry" />
        </mxCell>
        <mxCell id="qrZ8J_EWP8P2Gk__u129-51" value="&lt;span style=&quot;text-align: left;&quot;&gt;+Location: string&amp;nbsp;&lt;/span&gt;" style="text;html=1;align=center;verticalAlign=middle;whiteSpace=wrap;rounded=0;" vertex="1" parent="qrZ8J_EWP8P2Gk__u129-47">
          <mxGeometry x="-3" y="58" width="114" height="30" as="geometry" />
        </mxCell>
        <mxCell id="qrZ8J_EWP8P2Gk__u129-52" value="&lt;div style=&quot;text-align: left;&quot;&gt;&lt;span style=&quot;background-color: initial;&quot;&gt;+CleanRoom()&lt;/span&gt;&lt;/div&gt;" style="text;html=1;align=center;verticalAlign=middle;whiteSpace=wrap;rounded=0;" vertex="1" parent="qrZ8J_EWP8P2Gk__u129-47">
          <mxGeometry x="-11" y="100" width="116" height="15" as="geometry" />
        </mxCell>
        <mxCell id="qrZ8J_EWP8P2Gk__u129-53" value="" style="endArrow=none;html=1;rounded=0;" edge="1" parent="qrZ8J_EWP8P2Gk__u129-47">
          <mxGeometry width="50" height="50" relative="1" as="geometry">
            <mxPoint y="90" as="sourcePoint" />
            <mxPoint x="150" y="90" as="targetPoint" />
          </mxGeometry>
        </mxCell>
        <mxCell id="qrZ8J_EWP8P2Gk__u129-54" value="&lt;span style=&quot;font-weight: 400;&quot;&gt;Food items&lt;/span&gt;" style="swimlane;whiteSpace=wrap;html=1;fillColor=#e1d5e7;strokeColor=#9673a6;" vertex="1" parent="1">
          <mxGeometry x="240" y="480" width="150" height="100" as="geometry">
            <mxRectangle x="60" y="210" width="90" height="30" as="alternateBounds" />
          </mxGeometry>
        </mxCell>
        <mxCell id="qrZ8J_EWP8P2Gk__u129-55" value="&lt;span style=&quot;text-align: left;&quot;&gt;+Id: int&lt;/span&gt;" style="text;html=1;align=center;verticalAlign=middle;whiteSpace=wrap;rounded=0;" vertex="1" parent="qrZ8J_EWP8P2Gk__u129-54">
          <mxGeometry x="-20" y="20" width="90" height="30" as="geometry" />
        </mxCell>
        <mxCell id="qrZ8J_EWP8P2Gk__u129-56" value="&lt;span style=&quot;text-align: left;&quot;&gt;+Name: string&lt;/span&gt;" style="text;html=1;align=center;verticalAlign=middle;whiteSpace=wrap;rounded=0;" vertex="1" parent="qrZ8J_EWP8P2Gk__u129-54">
          <mxGeometry x="5" y="39" width="78" height="30" as="geometry" />
        </mxCell>
        <mxCell id="qrZ8J_EWP8P2Gk__u129-57" value="&lt;span style=&quot;font-weight: 400;&quot;&gt;Chef&lt;/span&gt;" style="swimlane;whiteSpace=wrap;html=1;fillColor=#e1d5e7;strokeColor=#9673a6;" vertex="1" parent="1">
          <mxGeometry x="70" y="290" width="150" height="120" as="geometry">
            <mxRectangle x="60" y="210" width="90" height="30" as="alternateBounds" />
          </mxGeometry>
        </mxCell>
        <mxCell id="qrZ8J_EWP8P2Gk__u129-58" value="" style="rounded=0;whiteSpace=wrap;html=1;fillColor=#e1d5e7;strokeColor=#9673a6;" vertex="1" parent="qrZ8J_EWP8P2Gk__u129-57">
          <mxGeometry y="24" width="150" height="96" as="geometry" />
        </mxCell>
        <mxCell id="qrZ8J_EWP8P2Gk__u129-59" value="&lt;span style=&quot;text-align: left;&quot;&gt;+Name: string&lt;/span&gt;" style="text;html=1;align=center;verticalAlign=middle;whiteSpace=wrap;rounded=0;" vertex="1" parent="qrZ8J_EWP8P2Gk__u129-57">
          <mxGeometry y="20" width="90" height="30" as="geometry" />
        </mxCell>
        <mxCell id="qrZ8J_EWP8P2Gk__u129-60" value="&lt;span style=&quot;text-align: left;&quot;&gt;+Id: int&lt;/span&gt;" style="text;html=1;align=center;verticalAlign=middle;whiteSpace=wrap;rounded=0;" vertex="1" parent="qrZ8J_EWP8P2Gk__u129-57">
          <mxGeometry x="6" y="39" width="40" height="30" as="geometry" />
        </mxCell>
        <mxCell id="qrZ8J_EWP8P2Gk__u129-61" value="&lt;span style=&quot;text-align: left;&quot;&gt;+Location: string&amp;nbsp;&lt;/span&gt;" style="text;html=1;align=center;verticalAlign=middle;whiteSpace=wrap;rounded=0;" vertex="1" parent="qrZ8J_EWP8P2Gk__u129-57">
          <mxGeometry x="-3" y="58" width="114" height="30" as="geometry" />
        </mxCell>
        <mxCell id="qrZ8J_EWP8P2Gk__u129-62" value="&lt;div style=&quot;text-align: left;&quot;&gt;&lt;span style=&quot;background-color: initial;&quot;&gt;+TakeOrders()&lt;/span&gt;&lt;/div&gt;" style="text;html=1;align=center;verticalAlign=middle;whiteSpace=wrap;rounded=0;" vertex="1" parent="qrZ8J_EWP8P2Gk__u129-57">
          <mxGeometry x="-11" y="98" width="116" height="15" as="geometry" />
        </mxCell>
        <mxCell id="qrZ8J_EWP8P2Gk__u129-63" value="" style="endArrow=none;html=1;rounded=0;exitX=0;exitY=0.75;exitDx=0;exitDy=0;entryX=1;entryY=0.75;entryDx=0;entryDy=0;" edge="1" parent="1" source="qrZ8J_EWP8P2Gk__u129-57" target="qrZ8J_EWP8P2Gk__u129-57">
          <mxGeometry width="50" height="50" relative="1" as="geometry">
            <mxPoint x="110" y="400" as="sourcePoint" />
            <mxPoint x="160" y="350" as="targetPoint" />
          </mxGeometry>
        </mxCell>
        <mxCell id="qrZ8J_EWP8P2Gk__u129-65" value="" style="endArrow=none;html=1;rounded=0;" edge="1" parent="1">
          <mxGeometry width="50" height="50" relative="1" as="geometry">
            <mxPoint x="820" y="520" as="sourcePoint" />
            <mxPoint x="950" y="520" as="targetPoint" />
          </mxGeometry>
        </mxCell>
        <mxCell id="qrZ8J_EWP8P2Gk__u129-67" value="" style="endArrow=none;html=1;rounded=0;exitX=0;exitY=0.5;exitDx=0;exitDy=0;entryX=1;entryY=0.5;entryDx=0;entryDy=0;" edge="1" parent="1">
          <mxGeometry width="50" height="50" relative="1" as="geometry">
            <mxPoint x="760" y="100" as="sourcePoint" />
            <mxPoint x="950" y="100" as="targetPoint" />
          </mxGeometry>
        </mxCell>
        <mxCell id="qrZ8J_EWP8P2Gk__u129-69" value="" style="endArrow=none;html=1;rounded=0;entryX=0;entryY=0.75;entryDx=0;entryDy=0;" edge="1" parent="1">
          <mxGeometry width="50" height="50" relative="1" as="geometry">
            <mxPoint x="280" y="91" as="sourcePoint" />
            <mxPoint x="450" y="88.50000000000011" as="targetPoint" />
          </mxGeometry>
        </mxCell>
        <mxCell id="qrZ8J_EWP8P2Gk__u129-70" value="+1" style="text;html=1;align=center;verticalAlign=middle;whiteSpace=wrap;rounded=0;" vertex="1" parent="1">
          <mxGeometry x="270" y="59" width="60" height="30" as="geometry" />
        </mxCell>
        <mxCell id="qrZ8J_EWP8P2Gk__u129-71" value="+0...*" style="text;html=1;align=center;verticalAlign=middle;whiteSpace=wrap;rounded=0;" vertex="1" parent="1">
          <mxGeometry x="400" y="61" width="60" height="30" as="geometry" />
        </mxCell>
        <mxCell id="qrZ8J_EWP8P2Gk__u129-72" value="" style="endArrow=none;html=1;rounded=0;entryX=0;entryY=0.5;entryDx=0;entryDy=0;exitX=0.133;exitY=0.873;exitDx=0;exitDy=0;exitPerimeter=0;" edge="1" parent="1" target="qrZ8J_EWP8P2Gk__u129-17" source="qrZ8J_EWP8P2Gk__u129-73">
          <mxGeometry width="50" height="50" relative="1" as="geometry">
            <mxPoint x="290" y="130" as="sourcePoint" />
            <mxPoint x="390" y="300" as="targetPoint" />
            <Array as="points">
              <mxPoint x="320" y="130" />
              <mxPoint x="320" y="300" />
            </Array>
          </mxGeometry>
        </mxCell>
        <mxCell id="qrZ8J_EWP8P2Gk__u129-73" value="+1" style="text;html=1;align=center;verticalAlign=middle;whiteSpace=wrap;rounded=0;" vertex="1" parent="1">
          <mxGeometry x="270" y="103" width="60" height="30" as="geometry" />
        </mxCell>
        <mxCell id="qrZ8J_EWP8P2Gk__u129-74" value="+1..*" style="text;html=1;align=center;verticalAlign=middle;whiteSpace=wrap;rounded=0;" vertex="1" parent="1">
          <mxGeometry x="353" y="270" width="60" height="30" as="geometry" />
        </mxCell>
        <mxCell id="qrZ8J_EWP8P2Gk__u129-75" value="" style="endArrow=none;html=1;rounded=0;entryX=0;entryY=0.5;entryDx=0;entryDy=0;exitX=1;exitY=0.5;exitDx=0;exitDy=0;" edge="1" parent="1" source="qrZ8J_EWP8P2Gk__u129-17">
          <mxGeometry width="50" height="50" relative="1" as="geometry">
            <mxPoint x="650" y="270" as="sourcePoint" />
            <mxPoint x="760" y="299" as="targetPoint" />
          </mxGeometry>
        </mxCell>
        <mxCell id="qrZ8J_EWP8P2Gk__u129-76" value="" style="endArrow=none;html=1;rounded=0;exitX=0.362;exitY=-0.013;exitDx=0;exitDy=0;entryX=0.25;entryY=1;entryDx=0;entryDy=0;exitPerimeter=0;" edge="1" parent="1" source="qrZ8J_EWP8P2Gk__u129-38">
          <mxGeometry width="50" height="50" relative="1" as="geometry">
            <mxPoint x="950" y="300" as="sourcePoint" />
            <mxPoint x="808" y="210" as="targetPoint" />
          </mxGeometry>
        </mxCell>
        <mxCell id="qrZ8J_EWP8P2Gk__u129-77" value="" style="endArrow=none;html=1;rounded=0;exitX=0.75;exitY=0;exitDx=0;exitDy=0;" edge="1" parent="1" source="qrZ8J_EWP8P2Gk__u129-42">
          <mxGeometry width="50" height="50" relative="1" as="geometry">
            <mxPoint x="940" y="380" as="sourcePoint" />
            <mxPoint x="920" y="210" as="targetPoint" />
          </mxGeometry>
        </mxCell>
        <mxCell id="qrZ8J_EWP8P2Gk__u129-78" value="+1" style="text;html=1;align=center;verticalAlign=middle;whiteSpace=wrap;rounded=0;" vertex="1" parent="1">
          <mxGeometry x="910" y="204" width="60" height="30" as="geometry" />
        </mxCell>
        <mxCell id="qrZ8J_EWP8P2Gk__u129-79" value="+0..*" style="text;html=1;align=center;verticalAlign=middle;whiteSpace=wrap;rounded=0;" vertex="1" parent="1">
          <mxGeometry x="910" y="420" width="60" height="30" as="geometry" />
        </mxCell>
        <mxCell id="qrZ8J_EWP8P2Gk__u129-80" value="" style="endArrow=none;html=1;rounded=0;exitX=1;exitY=0.75;exitDx=0;exitDy=0;" edge="1" parent="1" source="qrZ8J_EWP8P2Gk__u129-17">
          <mxGeometry width="50" height="50" relative="1" as="geometry">
            <mxPoint x="710" y="420" as="sourcePoint" />
            <mxPoint x="820" y="500" as="targetPoint" />
            <Array as="points">
              <mxPoint x="720" y="355" />
              <mxPoint x="720" y="500" />
            </Array>
          </mxGeometry>
        </mxCell>
        <mxCell id="qrZ8J_EWP8P2Gk__u129-81" value="+1" style="text;html=1;align=center;verticalAlign=middle;whiteSpace=wrap;rounded=0;" vertex="1" parent="1">
          <mxGeometry x="590" y="330" width="60" height="30" as="geometry" />
        </mxCell>
        <mxCell id="qrZ8J_EWP8P2Gk__u129-82" value="" style="endArrow=none;html=1;rounded=0;entryX=0;entryY=0.5;entryDx=0;entryDy=0;exitX=0.5;exitY=1;exitDx=0;exitDy=0;" edge="1" parent="1" source="qrZ8J_EWP8P2Gk__u129-57" target="qrZ8J_EWP8P2Gk__u129-54">
          <mxGeometry width="50" height="50" relative="1" as="geometry">
            <mxPoint x="180" y="510" as="sourcePoint" />
            <mxPoint x="210" y="540" as="targetPoint" />
            <Array as="points">
              <mxPoint x="145" y="530" />
            </Array>
          </mxGeometry>
        </mxCell>
        <mxCell id="qrZ8J_EWP8P2Gk__u129-83" value="+1..*" style="text;html=1;align=center;verticalAlign=middle;whiteSpace=wrap;rounded=0;" vertex="1" parent="1">
          <mxGeometry x="130" y="410" width="60" height="30" as="geometry" />
        </mxCell>
        <mxCell id="qrZ8J_EWP8P2Gk__u129-84" value="+1..*" style="text;html=1;align=center;verticalAlign=middle;whiteSpace=wrap;rounded=0;" vertex="1" parent="1">
          <mxGeometry x="185" y="500" width="60" height="30" as="geometry" />
        </mxCell>
        <mxCell id="qrZ8J_EWP8P2Gk__u129-85" value="" style="endArrow=none;html=1;rounded=0;entryX=0.25;entryY=1;entryDx=0;entryDy=0;" edge="1" parent="1" target="qrZ8J_EWP8P2Gk__u129-17">
          <mxGeometry width="50" height="50" relative="1" as="geometry">
            <mxPoint x="390" y="535" as="sourcePoint" />
            <mxPoint x="430" y="430" as="targetPoint" />
            <Array as="points">
              <mxPoint x="460" y="535" />
            </Array>
          </mxGeometry>
        </mxCell>
        <mxCell id="qrZ8J_EWP8P2Gk__u129-86" value="" style="endArrow=none;html=1;rounded=0;" edge="1" parent="1">
          <mxGeometry width="50" height="50" relative="1" as="geometry">
            <mxPoint x="300" y="580" as="sourcePoint" />
            <mxPoint x="504" y="640" as="targetPoint" />
            <Array as="points">
              <mxPoint x="300" y="640" />
            </Array>
          </mxGeometry>
        </mxCell>
      </root>
    </mxGraphModel>
  </diagram>
</mxfile>
